<?xml version="1.0" encoding="UTF-8"?>
<svg width="632px" height="54px" viewBox="0 0 632 54" version="1.1" xmlns="http://www.w3.org/2000/svg" xmlns:xlink="http://www.w3.org/1999/xlink">
    <!-- Generator: Sketch 50.2 (55047) - http://www.bohemiancoding.com/sketch -->
    <title>Freedom on the Move</title>
    <desc>Created with Sketch.</desc>
    <defs>
        <path d="M16.992,41.272 C18,39.976 19.008,38.752 19.584,38.824 C20.088,39.184 18.792,40.624 18.72,40.696 C17.568,42.28 15.624,45.736 13.68,45.736 C13.248,45.736 10.944,45.376 10.872,44.872 C10.44,42.064 14.04,34.72 17.28,28.456 C16.128,28.6 14.904,28.672 14.4,28.672 C13.608,28.672 12.528,27.952 12.528,26.8 C12.528,25.36 15.552,24.424 16.56,24.424 C17.712,24.424 18,25.792 18.504,25.792 L18.72,25.792 C20.16,23.2 21.384,20.896 22.032,19.672 C22.968,17.872 22.68,17.152 22.464,16.72 C22.968,14.344 28.008,8.152 31.752,8.152 C32.688,8.152 36.288,9.16 36,11.392 C35.712,11.176 35.352,11.032 35.064,11.032 C31.248,11.032 25.92,18.304 21.6,25.72 C23.184,25.576 24.84,25.36 26.568,25.072 C30.024,24.64 33.768,23.992 37.152,23.992 C38.16,23.992 40.032,24.424 37.08,25.504 C34.704,26.296 26.28,27.592 20.16,28.24 C17.64,32.776 15.624,37.024 14.688,39.4 C12.96,43.504 15.408,43.216 16.992,41.272 Z M46.584,15.136 C46.944,15.712 46.152,16.504 45.288,15.424 C44.424,14.56 44.28,10.024 45.792,7.144 C46.152,6.64 46.44,6.064 46.8,5.632 C37.872,5.992 29.52,3.544 20.448,4.912 C11.808,6.064 4.104,9.88 2.808,15.856 C1.944,19.384 5.688,20.752 7.128,21.832 C7.992,22.48 7.344,22.984 6.48,22.696 C4.032,21.976 -0.576,18.664 1.008,14.416 C1.008,14.344 1.008,13.624 1.08,13.264 C2.592,6.064 11.304,2.68 20.592,2.032 C31.68,1.312 37.944,4.264 47.664,4.552 C48.96,3.112 50.328,2.392 50.904,2.32 C52.56,1.96 54.36,3.112 52.92,4.552 C52.2,5.272 50.76,6.064 49.464,7.36 C47.16,9.592 45,12.76 46.584,15.136 Z M47.138665,34.864 C46.418665,35.8 45.194665,35.44 46.274665,34.072 C48.866665,30.904 51.098665,27.52 52.970665,23.92 C51.890665,23.776 51.170665,23.056 51.458665,22.192 C52.106665,20.032 55.130665,17.08 57.290665,16.072 C59.378665,15.136 60.890665,14.344 58.946665,17.872 L56.138665,22.336 C58.586665,22.48 61.106665,22.624 63.698665,22.48 C68.018665,22.264 66.290665,24.712 63.770665,27.592 C60.530665,31.336 58.154665,36.016 57.290665,38.32 C56.138665,41.56 57.218665,43.576 59.594665,42.352 C61.898665,41.056 67.298665,36.52 70.250665,32.344 C70.610665,31.84 71.546665,32.272 71.186665,32.92 C69.818665,35.44 65.426665,40.192 61.826665,42.784 C60.530665,43.792 58.226665,44.8 56.210665,44.8 C54.626665,44.8 53.258665,44.152 52.754665,42.136 C51.458665,37.456 56.210665,32.2 58.874665,29.464 C59.954665,28.24 63.266665,25.072 58.298665,24.28 C57.146665,24.064 56.138665,23.92 55.058665,23.92 C52.466665,27.592 50.018665,31.336 47.138665,34.864 Z M94.49333,28.96 C91.90133,32.776 85.06133,35.512 81.82133,35.8 C80.74133,35.872 80.23733,34.864 81.31733,34.792 C83.62133,34.576 87.65333,32.272 90.31733,30.112 C91.54133,29.176 93.70133,27.016 93.55733,25.432 C93.48533,23.416 90.89333,24.496 89.88533,25 C85.63733,26.944 79.44533,32.92 77.86133,38.176 C76.06133,44.224 81.60533,44.296 86.28533,42.424 C91.61333,40.264 96.22133,36.376 98.81333,32.416 C99.10133,32.056 99.46133,32.056 99.60533,32.2 C99.96533,32.344 99.96533,32.704 99.67733,33.064 C96.79733,37.816 92.26133,41.776 87.22133,43.864 C79.87733,46.816 70.66133,43.864 74.62133,34.792 C76.78133,29.896 87.94133,20.464 93.34133,22.264 C96.29333,23.272 95.86133,26.944 94.49333,28.96 Z M123.127995,28.96 C120.535995,32.776 113.695995,35.512 110.455995,35.8 C109.375995,35.872 108.871995,34.864 109.951995,34.792 C112.255995,34.576 116.287995,32.272 118.951995,30.112 C120.175995,29.176 122.335995,27.016 122.191995,25.432 C122.119995,23.416 119.527995,24.496 118.519995,25 C114.271995,26.944 108.079995,32.92 106.495995,38.176 C104.695995,44.224 110.239995,44.296 114.919995,42.424 C120.247995,40.264 124.855995,36.376 127.447995,32.416 C127.735995,32.056 128.095995,32.056 128.239995,32.2 C128.599995,32.344 128.599995,32.704 128.311995,33.064 C125.431995,37.816 120.895995,41.776 115.855995,43.864 C108.511995,46.816 99.295995,43.864 103.255995,34.792 C105.415995,29.896 116.575995,20.464 121.975995,22.264 C124.927995,23.272 124.495995,26.944 123.127995,28.96 Z M135.92266,43.792 C134.41066,43.792 132.39466,42.784 131.31466,41.344 C125.98666,34.576 142.40266,23.776 147.80266,22.48 C149.96266,21.904 153.20266,21.76 155.00266,23.056 L155.29066,23.272 C160.11466,12.112 167.24266,-1.136 175.52266,0.52 C179.62666,1.312 179.26666,4.624 177.61066,7.576 C173.36266,15.064 162.92266,22.264 156.44266,27.88 C155.00266,31.264 153.34666,36.304 152.48266,39.544 C151.33066,44.08 151.18666,47.464 152.41066,49.48 C152.98666,50.632 154.28266,51.136 155.65066,50.056 C156.01066,49.84 156.22666,49.552 156.73066,49.264 C157.59466,48.76 157.95466,48.976 157.52266,49.84 C157.23466,50.2 156.87466,50.632 156.44266,51.064 C155.43466,51.784 152.98666,52 151.69066,51.784 C144.49066,50.632 150.39466,35.08 152.26666,30.4 C147.87466,35.512 140.24266,43.792 135.92266,43.792 Z M154.71466,24.424 C153.99466,24.064 153.13066,23.992 152.19466,23.992 C148.45066,23.992 143.41066,26.872 139.66666,30.184 C137.65066,32.056 131.67466,38.896 133.90666,42.064 C134.91466,43.504 138.44266,40.912 139.45066,40.12 C144.27466,36.16 149.38666,31.48 153.70666,26.872 L154.71466,24.424 Z M158.60266,23.704 C164.36266,19.96 172.57066,12.4 175.81066,6.28 C177.61066,2.824 176.53066,0.736 172.93066,3.472 C166.45066,8.44 162.34666,15.424 158.60266,23.704 Z M178.309325,37.816 C178.237325,37.672 178.093325,37.6 178.093325,37.384 C177.661325,35.872 178.669325,34.72 179.893325,35.08 C181.837325,31.192 181.261325,29.68 180.901325,28.816 C180.109325,26.8 183.277325,26.08 183.853325,28.024 C184.861325,30.976 182.341325,35.44 180.757325,37.672 C180.829325,39.04 181.621325,39.616 182.557325,39.616 C184.861325,39.616 187.237325,36.952 188.677325,35.44 C189.541325,34.432 190.477325,33.352 191.197325,32.344 C191.557325,31.84 192.421325,32.272 192.061325,32.92 C191.629325,33.784 190.693325,34.936 189.613325,36.232 C188.029325,38.176 185.149325,41.272 182.341325,41.272 C181.117325,41.272 179.893325,40.552 179.389325,39.472 C178.453325,40.48 177.517325,41.416 176.581325,42.28 C173.341325,45.016 169.453325,45.232 167.077325,43.72 C164.701325,42.28 163.837325,38.896 165.133325,34.432 C165.853325,31.696 168.229325,27.88 171.469325,25 C174.133325,22.624 177.373325,21.472 179.533325,22.264 C180.829325,22.696 181.909325,23.92 181.621325,25.72 C181.477325,26.872 180.397325,26.8 180.397325,26.224 C180.541325,25.432 180.397325,24.28 179.029325,24.28 C175.861325,24.28 168.949325,31.624 167.797325,38.176 C167.293325,40.984 168.157325,43.432 170.821325,43.432 C173.053325,43.432 176.149325,41.056 178.309325,37.816 Z M198.95199,31.48 C198.01599,32.92 196.93599,34.36 196.07199,35.224 C195.35199,36.016 195.35199,34.36 195.99999,33.424 C198.95199,29.536 199.52799,28.6 200.75199,26.224 C200.96799,25 201.25599,22.48 204.49599,23.344 C205.64799,23.632 205.57599,24.28 204.99999,25.432 C203.19999,29.392 200.89599,35.8 200.03199,38.104 C203.05599,34.36 209.31999,27.592 213.27999,24.496 C217.95999,20.896 221.27199,22.12 218.24799,28.096 C217.52799,29.464 216.15999,32.632 215.51199,33.784 C218.03199,31.48 222.20799,28.024 225.44799,26.8 C226.23999,26.512 231.27999,24.784 229.33599,27.736 C226.81599,31.552 225.08799,36.52 224.79999,38.824 C224.36799,41.92 225.80799,43.576 228.11199,42.352 C230.48799,41.056 235.88799,36.52 238.83999,32.344 C239.19999,31.84 240.13599,32.272 239.77599,32.92 C238.40799,35.44 234.01599,40.192 230.41599,42.784 C228.03999,44.512 222.71199,46.24 221.27199,41.92 C220.69599,39.976 221.48799,35.656 222.49599,33.136 C222.99999,31.84 223.79199,29.896 224.51199,28.816 C220.11999,30.544 215.79999,35.584 213.63999,37.816 C212.77599,39.904 208.95999,40.552 210.03999,37.816 C211.47999,34.36 213.71199,30.04 214.35999,28.816 C215.65599,26.512 215.00799,25 209.75199,29.536 C205.64799,33.28 199.59999,42.784 198.23199,43.576 C197.51199,43.936 193.69599,45.664 194.41599,44.296 C194.84799,43.36 197.15199,36.664 198.95199,31.48 Z M278.39732,37.816 C278.32532,37.672 278.18132,37.6 278.18132,37.384 C277.74932,35.872 278.75732,34.72 279.98132,35.08 C281.92532,31.192 281.34932,29.68 280.98932,28.816 C280.19732,26.8 283.36532,26.08 283.94132,28.024 C284.94932,30.976 282.42932,35.44 280.84532,37.672 C280.91732,39.04 281.70932,39.616 282.64532,39.616 C284.94932,39.616 287.32532,36.952 288.76532,35.44 C289.62932,34.432 290.56532,33.352 291.28532,32.344 C291.64532,31.84 292.50932,32.272 292.14932,32.92 C291.71732,33.784 290.78132,34.936 289.70132,36.232 C288.11732,38.176 285.23732,41.272 282.42932,41.272 C281.20532,41.272 279.98132,40.552 279.47732,39.472 C278.54132,40.48 277.60532,41.416 276.66932,42.28 C273.42932,45.016 269.54132,45.232 267.16532,43.72 C264.78932,42.28 263.92532,38.896 265.22132,34.432 C265.94132,31.696 268.31732,27.88 271.55732,25 C274.22132,22.624 277.46132,21.472 279.62132,22.264 C280.91732,22.696 281.99732,23.92 281.70932,25.72 C281.56532,26.872 280.48532,26.8 280.48532,26.224 C280.62932,25.432 280.48532,24.28 279.11732,24.28 C275.94932,24.28 269.03732,31.624 267.88532,38.176 C267.38132,40.984 268.24532,43.432 270.90932,43.432 C273.14132,43.432 276.23732,41.056 278.39732,37.816 Z M312.287985,29.104 C313.583985,26.8 313.295985,25 308.039985,29.536 C303.935985,33.28 297.887985,42.784 296.519985,43.576 C295.799985,43.936 291.983985,45.664 292.703985,44.296 C293.279985,42.856 297.527985,30.544 298.967985,26.584 C299.327985,25.72 299.039985,22.336 302.783985,23.344 C303.935985,23.632 303.863985,24.28 303.287985,25.432 C301.487985,29.392 299.183985,35.8 298.319985,38.104 C301.343985,34.36 307.607985,27.592 311.567985,24.496 C315.743985,21.4 318.767985,21.904 317.327985,26.224 C316.535985,28.672 314.879985,30.904 313.943985,33.352 C313.007985,35.512 312.503985,37.456 312.287985,38.824 C311.855985,41.92 313.295985,43.576 315.599985,42.352 C317.903985,41.056 323.375985,36.52 326.327985,32.344 C326.687985,31.84 327.623985,32.272 327.263985,32.92 C325.895985,35.44 321.503985,40.192 317.903985,42.784 C316.535985,43.792 314.159985,44.8 312.143985,44.584 C304.583985,43.864 310.487985,32.416 312.287985,29.104 Z M370.853315,22.336 C371.717315,22.336 373.229315,22.84 370.205315,23.56 C369.125315,23.92 365.453315,24.424 362.069315,24.784 C361.133315,26.512 360.269315,27.736 360.053315,28.384 C357.893315,32.704 355.949315,36.52 355.733315,38.824 C355.229315,41.92 356.669315,43.576 359.045315,42.352 C361.349315,41.056 366.749315,36.52 369.773315,32.344 C370.133315,31.84 370.997315,32.272 370.637315,32.92 C369.269315,35.44 364.877315,40.192 361.277315,42.784 C358.973315,44.512 353.645315,46.24 352.205315,41.92 C351.629315,40.264 352.853315,36.376 354.365315,33.064 C353.717315,33.856 353.069315,34.936 351.557315,36.664 C350.837315,37.456 350.117315,36.52 350.765315,35.656 C353.285315,32.56 355.229315,29.896 356.309315,28.24 C356.309315,28.096 356.957315,26.944 357.893315,25.216 C357.173315,25.36 356.597315,25.36 356.237315,25.36 C355.517315,25.36 354.797315,24.712 355.229315,23.776 C355.805315,22.552 357.677315,22.552 359.045315,22.48 C359.117315,22.336 359.189315,22.336 359.333315,22.336 L362.933315,15.64 C364.733315,12.544 364.877315,11.824 365.885315,11.68 C366.965315,11.536 368.333315,11.752 368.765315,12.4 C369.413315,13.264 368.549315,14.704 368.117315,15.352 C367.757315,16.072 367.037315,16 366.605315,16.864 L363.149315,22.912 L364.085315,22.84 C366.317315,22.624 368.117315,22.264 370.853315,22.336 Z M381.27198,24.352 L381.63198,24.496 C382.06398,23.92 382.42398,23.272 382.71198,22.696 C383.93598,20.104 393.51198,-1.424 402.94398,0.52 C407.04798,1.312 406.68798,4.624 405.03198,7.576 C401.21598,14.272 391.35198,21.472 384.58398,26.944 C382.35198,31.912 381.12798,35.872 380.40798,38.104 C383.43198,34.36 389.69598,27.592 393.65598,24.496 C396.96798,21.976 399.63198,21.832 399.77598,24.064 C399.99198,26.44 397.61598,29.68 396.53598,31.696 C395.16798,34.504 394.37598,37.24 394.23198,38.824 C393.72798,41.92 395.16798,43.576 397.54398,42.352 C399.84798,41.056 405.24798,36.52 408.27198,32.344 C408.70398,31.84 409.49598,32.272 409.13598,32.92 C407.76798,35.44 403.37598,40.192 399.84798,42.784 C397.54398,44.512 392.14398,46.24 390.70398,41.92 C390.41598,41.056 390.41598,39.832 390.63198,38.464 C390.99198,35.44 393.00798,31.696 394.44798,29.032 C395.74398,26.656 395.38398,25 390.12798,29.536 C386.02398,33.28 379.97598,42.784 378.60798,43.576 C377.88798,43.936 374.07198,45.664 374.79198,44.296 C375.22398,43.216 378.46398,33.712 380.55198,28.384 C379.54398,29.68 376.59198,33.136 374.64798,35.224 C373.92798,36.016 373.92798,34.36 374.57598,33.424 C376.66398,30.76 378.75198,28.384 380.33598,26.224 C378.96798,25.504 379.83198,23.56 381.27198,24.352 Z M386.02398,23.704 C391.78398,19.96 399.99198,12.4 403.23198,6.28 C405.03198,2.824 403.95198,0.736 400.35198,3.472 C393.87198,8.44 389.76798,15.424 386.02398,23.704 Z M432.442645,28.96 C429.850645,32.776 423.010645,35.512 419.770645,35.8 C418.690645,35.872 418.186645,34.864 419.266645,34.792 C421.570645,34.576 425.602645,32.272 428.266645,30.112 C429.490645,29.176 431.650645,27.016 431.506645,25.432 C431.434645,23.416 428.842645,24.496 427.834645,25 C423.586645,26.944 417.394645,32.92 415.810645,38.176 C414.010645,44.224 419.554645,44.296 424.234645,42.424 C429.562645,40.264 434.170645,36.376 436.762645,32.416 C437.050645,32.056 437.410645,32.056 437.554645,32.2 C437.914645,32.344 437.914645,32.704 437.626645,33.064 C434.746645,37.816 430.210645,41.776 425.170645,43.864 C417.826645,46.816 408.610645,43.864 412.570645,34.792 C414.730645,29.896 425.890645,20.464 431.290645,22.264 C434.242645,23.272 433.810645,26.944 432.442645,28.96 Z M526.935975,7.576 C531.471975,2.896 537.375975,3.904 535.575975,11.104 C533.343975,20.32 528.951975,25.792 527.943975,35.656 C527.151975,43.864 530.535975,43.936 535.359975,40.192 C537.879975,38.104 540.975975,35.08 542.991975,32.344 C543.351975,31.84 544.359975,32.344 543.855975,32.92 C541.983975,35.872 537.303975,40.696 534.423975,42.784 C531.255975,45.16 525.783975,45.88 524.559975,41.056 C522.471975,33.64 529.455975,17.512 531.543975,12.112 C532.839975,8.944 531.111975,7.432 528.231975,9.952 C524.343975,13.264 519.231975,19.744 514.623975,26.512 C511.023975,31.84 507.711975,37.384 505.983975,40.984 C504.543975,44.152 502.671975,39.832 503.031975,39.04 C506.343975,30.472 509.583975,7.864 501.303975,7.864 C497.559975,7.864 490.503975,13.264 483.519975,19.672 C481.719975,23.92 476.463975,37.312 470.631975,44.656 C463.863975,53.224 456.015975,48.976 461.271975,40.624 C465.663975,33.712 476.751975,22.48 480.999975,18.592 L483.735975,9.304 C481.071975,11.824 477.399975,12.976 474.375975,13.264 C473.295975,13.336 473.439975,12.184 474.519975,12.112 C478.623975,11.68 483.663975,7.216 485.823975,2.104 C486.183975,1.024 490.791975,0.736 490.503975,2.104 L485.535975,14.416 C491.151975,9.664 496.479975,6.064 499.575975,5.92 C509.079975,5.344 510.951975,12.976 510.159975,19.744 C509.655975,24.064 508.071975,30.256 506.415975,35.224 C506.199975,35.944 505.119975,38.824 506.631975,36.376 C509.079975,32.632 511.095975,28.816 513.759975,24.784 C517.575975,18.88 522.399975,12.472 526.935975,7.576 Z M464.295975,40.192 C459.615975,46.384 462.783975,49.624 468.399975,43.864 C471.855975,40.192 477.759975,28.096 479.559975,23.2 C474.159975,28.312 466.959975,36.592 464.295975,40.192 Z M560.97064,37.816 C560.89864,37.672 560.75464,37.6 560.75464,37.384 C560.32264,35.872 561.33064,34.72 562.55464,35.08 C564.49864,31.192 563.92264,29.68 563.56264,28.816 C562.77064,26.8 565.93864,26.08 566.51464,28.024 C567.52264,30.976 565.00264,35.44 563.41864,37.672 C563.49064,39.04 564.28264,39.616 565.21864,39.616 C567.52264,39.616 569.89864,36.952 571.33864,35.44 C572.20264,34.432 573.13864,33.352 573.85864,32.344 C574.21864,31.84 575.08264,32.272 574.72264,32.92 C574.29064,33.784 573.35464,34.936 572.27464,36.232 C570.69064,38.176 567.81064,41.272 565.00264,41.272 C563.77864,41.272 562.55464,40.552 562.05064,39.472 C561.11464,40.48 560.17864,41.416 559.24264,42.28 C556.00264,45.016 552.11464,45.232 549.73864,43.72 C547.36264,42.28 546.49864,38.896 547.79464,34.432 C548.51464,31.696 550.89064,27.88 554.13064,25 C556.79464,22.624 560.03464,21.472 562.19464,22.264 C563.49064,22.696 564.57064,23.92 564.28264,25.72 C564.13864,26.872 563.05864,26.8 563.05864,26.224 C563.20264,25.432 563.05864,24.28 561.69064,24.28 C558.52264,24.28 551.61064,31.624 550.45864,38.176 C549.95464,40.984 550.81864,43.432 553.48264,43.432 C555.71464,43.432 558.81064,41.056 560.97064,37.816 Z M608.973305,19.24 C609.477305,19.816 609.261305,21.472 608.109305,20.536 C607.533305,20.032 606.453305,20.176 605.661305,20.176 C602.709305,20.176 596.949305,25.576 594.573305,27.952 C588.741305,34 582.189305,42.424 581.757305,45.52 C581.757305,46.024 581.109305,46.096 580.821305,46.096 C579.021305,46.096 578.373305,44.224 578.589305,42.712 C579.021305,39.904 580.101305,36.952 580.893305,34.072 C581.109305,33.424 581.469305,32.272 581.757305,30.904 C581.109305,31.984 580.317305,33.136 579.381305,34.432 C578.733305,35.224 577.869305,34.576 578.373305,33.784 C580.533305,30.832 581.829305,28.384 582.333305,26.944 C582.333305,24.712 581.757305,22.984 579.381305,23.632 C578.733305,23.776 578.949305,23.2 579.381305,22.696 C579.813305,22.336 581.469305,22.192 582.333305,22.12 C583.701305,22.12 585.213305,21.976 586.149305,23.056 C586.653305,23.632 586.941305,24.424 586.869305,25.216 C586.797305,26.224 584.421305,31.624 584.133305,32.56 C583.269305,35.152 581.973305,39.04 582.189305,40.696 C586.797305,34.72 591.261305,28.6 596.733305,23.416 C599.037305,21.256 601.197305,19.384 604.077305,18.16 C606.093305,17.296 608.397305,18.16 608.973305,19.24 Z M626.37597,28.96 C623.78397,32.776 616.94397,35.512 613.70397,35.8 C612.62397,35.872 612.11997,34.864 613.19997,34.792 C615.50397,34.576 619.53597,32.272 622.19997,30.112 C623.42397,29.176 625.58397,27.016 625.43997,25.432 C625.36797,23.416 622.77597,24.496 621.76797,25 C617.51997,26.944 611.32797,32.92 609.74397,38.176 C607.94397,44.224 613.48797,44.296 618.16797,42.424 C623.49597,40.264 628.10397,36.376 630.69597,32.416 C630.98397,32.056 631.34397,32.056 631.48797,32.2 C631.84797,32.344 631.84797,32.704 631.55997,33.064 C628.67997,37.816 624.14397,41.776 619.10397,43.864 C611.75997,46.816 602.54397,43.864 606.50397,34.792 C608.66397,29.896 619.82397,20.464 625.22397,22.264 C628.17597,23.272 627.74397,26.944 626.37597,28.96 Z" id="path-1"></path>
        <filter x="-0.2%" y="-1.9%" width="100.3%" height="107.8%" filterUnits="objectBoundingBox" id="filter-2">
            <feOffset dx="0" dy="2" in="SourceAlpha" result="shadowOffsetOuter1"></feOffset>
            <feColorMatrix values="0 0 0 0 0.901960784   0 0 0 0 0.725490196   0 0 0 0 0.109803922  0 0 0 1 0" type="matrix" in="shadowOffsetOuter1"></feColorMatrix>
        </filter>
    </defs>
    <g id="Page-1" stroke="none" stroke-width="1" fill="none" fill-rule="evenodd">
        <g id="Freedom-on-the-Move">
            <use fill="black" fill-opacity="1" filter="url(#filter-2)" xlink:href="#path-1"></use>
            <use fill="#E6B91C" fill-rule="evenodd" xlink:href="#path-1"></use>
        </g>
    </g>
</svg>